# xmcd CD database file
#
# Track frame offsets:
# 150
# 12554
# 29952
# 43947
# 59429
# 83897
# 100910
# 119610
# 134780
# 154719
# 166475
#
# Disc length: 2475 seconds
# Revision: 2
# Processed by: cddbd v1.5.2PL0 Copyright (c) Steve Scherf et al.
# Submitted via: MusicBin 0.4
#
DISCID=a409a90b
DTITLE=Carolyn Owen - Cabin Fever
DYEAR=2004
DGENRE=Country
TTITLE0=I Love You, But
TTITLE1=Until Then
TTITLE2=Tell Her
TTITLE3=Blue Sky Days
TTITLE4=With The One I Love
TTITLE5=Love Me Like A Dog
TTITLE6=Hi-Time
TTITLE7=Get Over It
TTITLE8=Count On The Blues
TTITLE9=Roses In December
TTITLE10=Piano Cry
EXTD=
EXTT0=
EXTT1=
EXTT2=
EXTT3=
EXTT4=
EXTT5=
EXTT6=
EXTT7=
EXTT8=
EXTT9=
EXTT10=
PLAYORDER=
